# xmcd
#
# Track frame offsets:
#	225
#	11710
#	22037
#	32872
#	46952
#	59237
#	74252
#	88735
#	98877
#	109982
#	118985
#	134097
#
# Disc length: 1934 seconds
#
# Revision: 2554056828
# Processed by: cddbd v1.5.2PL0 Copyright (c) Steve Scherf et al.
# Submitted via: EZCDAudioConverter 9.0.7.1
#
DISCID=ba078b0c
DTITLE=Klipwerf Orkes - Kom Kuier In Die Hantam
DYEAR=2016
DGENRE=Native American
TTITLE0=Klipwerf Vastrap
TTITLE1=Rangers Waltz
TTITLE2=Klein Bietjie Wyn
TTITLE3=Ou Boesmanland
TTITLE4=Umfaan
TTITLE5=Forever And Ever
TTITLE6=Sonop
TTITLE7=Blou Berge
TTITLE8=Op My Harmonika Auf Der
TTITLE9=Tant Antjie Ruik Na Gom
TTITLE10=Wierdeshau
TTITLE11=The Mocking Bird Song
EXTD=
EXTT0=
EXTT1=
EXTT2=
EXTT3=
EXTT4=
EXTT5=
EXTT6=
EXTT7=
EXTT8=
EXTT9=
EXTT10=
EXTT11=
PLAYORDER=
